ffmpeg started on 2025-04-30 at 07:10:46
Report written to "/app/tmp/ffmpeg_report.log"
Command line:
/usr/local/lib/python3.11/site-packages/imageio_ffmpeg/binaries/ffmpeg-linux64-v4.2.2 -y -loglevel error -f rawvideo -vcodec rawvideo -s 1280x720 -pix_fmt rgba -r 25.00 -an -i - -i temp_moviepy_outputTEMP_MPY_wvf_snd.mp4 -acodec copy -vcodec libx264 -preset ultrafast -threads 8 -preset ultrafast -crf 28 -pix_fmt yuv420p -movflags +faststart -max_muxing_queue_size 1024 -pix_fmt yuva420p temp_moviepy_output.mp4
ffmpeg version 4.2.2-static https://johnvansickle.com/ffmpeg/  Copyright (c) 2000-2019 the FFmpeg developers
  built with gcc 8 (Debian 8.3.0-6)
  configuration: --enable-gpl --enable-version3 --enable-static --disable-debug --disable-ffplay --disable-indev=sndio --disable-outdev=sndio --cc=gcc --enable-fontconfig --enable-frei0r --enable-gnutls --enable-gmp --enable-libgme --enable-gray --enable-libaom --enable-libfribidi --enable-libass --enable-libvmaf --enable-libfreetype --enable-libmp3lame --enable-libopencore-amrnb --enable-libopencore-amrwb --enable-libopenjpeg --enable-librubberband --enable-libsoxr --enable-libspeex --enable-libsrt --enable-libvorbis --enable-libopus --enable-libtheora --enable-libvidstab --enable-libvo-amrwbenc --enable-libvpx --enable-libwebp --enable-libx264 --enable-libx265 --enable-libxml2 --enable-libdav1d --enable-libxvid --enable-libzvbi --enable-libzimg
  libavutil      56. 31.100 / 56. 31.100
  libavcodec     58. 54.100 / 58. 54.100
  libavformat    58. 29.100 / 58. 29.100
  libavdevice    58.  8.100 / 58.  8.100
  libavfilter     7. 57.100 /  7. 57.100
  libswscale      5.  5.100 /  5.  5.100
  libswresample   3.  5.100 /  3.  5.100
  libpostproc    55.  5.100 / 55.  5.100
Input #0, rawvideo, from 'pipe:':
  Duration: N/A, start: 0.000000, bitrate: 737280 kb/s
    Stream #0:0: Video: rawvideo (RGBA / 0x41424752), rgba, 1280x720, 737280 kb/s, 25 tbr, 25 tbn, 25 tbc
Input #1, mov,mp4,m4a,3gp,3g2,mj2, from 'temp_moviepy_outputTEMP_MPY_wvf_snd.mp4':
  Metadata:
    major_brand     : isom
    minor_version   : 512
    compatible_brands: isomiso2mp41
    encoder         : Lavf58.29.100
  Duration: 00:00:24.51, start: 0.000000, bitrate: 131 kb/s
    Stream #1:0(und): Audio: aac (LC) (mp4a / 0x6134706D), 44100 Hz, stereo, fltp, 129 kb/s (default)
    Metadata:
      handler_name    : SoundHandler
Stream mapping:
  Stream #0:0 -> #0:0 (rawvideo (native) -> h264 (libx264))
  Stream #1:0 -> #0:1 (copy)
Incompatible pixel format 'yuva420p' for codec 'libx264', auto-selecting format 'yuv420p'
[libx264 @ 0x44fab100] using cpu capabilities: MMX2 SSE2Fast SSSE3 SSE4.2 AVX FMA3 BMI2 AVX2
[libx264 @ 0x44fab100] frame=    3 fps=0frame=    3 fps=0.1 q=-0.0 size=   18225kB time=00:00:00.10 bitrate=1491500.5kbits/s speed=0.00233x  av_interleaved_write_frame(): Broken pipe
Error writing trailer of pipe:: Broken pipe
size=     842kB time=00:00:04.90 bitrate=1405.1kbits/s speed=0.0826x    
video:0kB audio:845kB subtitle:0kB other streams:0kB global headers:0kB muxing overhead: unknown
Exiting normally, received signal 15.
nal 15.
 frame=   13 fps=0.2 q=-0.0 size=   78975kB time=00:00:00.52 bitrate=1244160.0kbits/s speed=0.00957x    frame=   19 fps=0.3 q=-0.0 size=  115425kB time=00:00:00.76 bitrate=1244160.0kbits/s speed=0.0138x    frame=   26 fps=0.5 q=-0.0 size=  157950kB time=00:00:01.04 bitrate=1244160.0kbits/s speed=0.0187x    frame=   33 fps=0.6 q=-0.0 size=  200475kB time=00:00:01.32 bitrate=1244160.0kbits/s speed=0.0236x    frame=   40 fps=0.7 q=-0.0 size=  243000kB time=00:00:01.60 bitrate=1244160.0kbits/s speed=0.0283x    frame=   47 fps=0.8 q=-0.0 size=  285525kB time=00:00:01.88 bitrate=1244160.0kbits/s speed=0.0329x    av_interleaved_write_frame(): Broken pipe
Error writing trailer of pipe:: Broken pipe
frame=   48 fps=0.8 q=-0.0 Lsize=  285589kB time=00:00:01.92 bitrate=1218513.1kbits/s speed=0.0322x    
video:291600kB audio:0kB subtitle:0kB other streams:0kB global headers:0kB muxing overhead: unknown
Exiting normally, received signal 15.
03.37 bitrate=523919.4kbits/s speed=0.052x    
video:218700kB audio:0kBav_interleaved_write_frame(): Broken pipe
Error writing trailer of pipe:: Broken pipe
frame=   88 fps=1.4 q=-0.0 Lsize=  528589kB time=00:00:03.52 bitrate=1230170.8kbits/s speed=0.0571x    
video:534600kB aav_interleaved_write_frame(): Broken pipe
Error writing trailer of pipe:: Broken pipe
frame=   88 fps=1.4 q=-0.0 Lsize=  528589kB time=00:00:03.52 bitrate=1230170.8kbits/s speed=0.0575x    
video:534600kB audio:0kB subtitle:0kB other streams:0kB global headers:0kB muxing overhead: unknown
Exiting normally, received signal 15.
audio:0kB subtitle:0kB other streams:0kB global headers:0kB muxing overhead: unknown
Exav_interleaved_av_interleaved_write_frame(): Broken pipe
Error writing trailer of pipe:: Broken pipe
frame=  127 fps=2.1 q=-0.0 Lsize=  765514kB time=00:00:04.23 bitrate=1479880.0kbits/s speed=0.0701x    
video:771525kB audio:0kB subtitle:0kB other streams:0kB global headers:0kB muxing overhead: unknown
Exiting normally, received signal 15.
bits/s speed=0.483x    frame=   95 fps= 13 q=28.0 size=     768kB time=00:00:03.41 bitrate=1843.3kbits/s speed=0.481x    frame=  100 fps= 13 q=27.0 size=     768kB time=00:00:03.62 bitrate=1737.0kbits/s speed=0.477x    frame=  104 fps= 13 q=27.0 size=    1024kB time=00:00:03.76 bitrate=2230.1kbits/s speed=0.464x    frame=  109 fps= 13 q=27.0 size=    1024kB time=00:00:03.97 bitrate=2112.8kbits/s speed=0.461x    frame=  113 fps= 12 q=29.0 size=    1024kB time=00:00:04.13 bitrate=2029.7kbits/s speed=0.454x    frame=  117 fps= 12 q=28.0 size=    1024kB time=00:00:04.29 bitrate=1952.9kbits/s speed=0.447x    frame=  121 fps= 12 q=27.0 size=    1024kB time=00:00:04.45 bitrate=1881.7kbits/s speed=0.44x    frame=  126 fps= 12 q=27.0 size=    1280kB time=00:00:04.64 bitrate=2258.0kbits/s speed=0.437x    frame=  131 fps= 12 q=28.0 size=    1280kB time=00:00:04.85 bitrate=2160.8kbits/s speed=0.436x    frame=  137 fps= 12 q=27.0 size=    1280kB time=00:00:05.08 bitrate=2062.1kbits/s speed=0.437x    frame=  144 fps= 12 q=28.0 size=    1280kB time=00:00:05.36 bitrate=1955.0kbits/s speed=0.442x    frame=  151 fps= 12 q=28.0 size=    1536kB time=00:00:05.64 bitrate=2230.1kbits/s speed=0.446x    frame=  157 fps= 12 q=27.0 size=    1536kB time=00:00:05.89 bitrate=2133.5kbits/s speed=0.449x    frame=  164 fps= 12 q=28.0 size=    1536kB time=00:00:06.17 bitrate=2037.3kbits/s speed=0.452x    frame=  170 fps= 12 q=28.0 size=    1792kB time=00:00:06.40 bitrate=2290.7kbits/s speed=0.453x    frame=  177 fps= 12 q=33.0 size=    1792kB time=00:00:06.68 bitrate=2195.3kbits/s speed=0.456x    frame=  184 fps= 12 q=33.0 size=    2048kB time=00:00:06.96 bitrate=2408.5kbits/s speed=0.459x    frame=  190 fps= 12 q=33.0 size=    2560kB time=00:00:07.22 bitrate=2904.1kbits/s speed=0.461x    frame=  195 fps= 12 q=34.0 size=    2816kB time=00:00:07.40 bitrate=3114.4kbits/s speed=0.458x    frame=  201 fps= 12 q=34.0 size=    3072kB time=00:00:07.64 bitrate=3294.0kbits/s speed=0.458x    frame=  205 fps= 12 q=34.0 size=    3584kB time=00:00:07.80 bitrate=3763.2kbits/s speed=0.454x    frame=  208 fps= 12 q=34.0 size=    3584kB time=00:00:07.94 bitrate=3697.2kbits/s speed=0.449x    frame=  213 fps= 12 q=34.0 size=    4096kB time=00:00:08.12 bitrate=4128.8kbits/s speed=0.447x    frame=  218 fps= 12 q=34.0 size=    4352kB time=00:00:08.33 bitrate=4276.9kbits/s speed=0.446x    frame=  224 fps= 12 q=34.0 size=    4864kB time=00:00:08.56 bitrate=4650.5kbits/s speed=0.446x    frame=  229 fps= 12 q=34.0 size=    5120kB time=00:00:08.77 bitrate=4778.7kbits/s speed=0.445x    frame=  234 fps= 12 q=34.0 size=    5376kB time=00:00:08.96 bitrate=4913.7kbits/s speed=0.443x    frame=  238 fps= 11 q=34.0 size=    5632kB time=00:00:09.12 bitrate=5055.9kbits/s speed=0.441x    frame=  243 fps= 11 q=34.0 size=    5888kB time=00:00:09.32 bitrate=5175.4kbits/s speed=0.439x    frame=  247 fps= 11 q=34.0 size=    6400kB time=00:00:09.49 bitrate=5520.6kbits/s speed=0.437x    frame=  252 fps= 11 q=34.0 size=    6656kB time=00:00:09.68 bitrate=5631.3kbits/s speed=0.436x    frame=  257 fps= 11 q=34.0 size=    6912kB time=00:00:09.89 bitrate=5724.3kbits/s speed=0.435x    frame=  262 fps= 11 q=34.0 size=    7424kB time=00:00:10.10 bitrate=6021.2kbits/s speed=0.435x    frame=  268 fps= 11 q=34.0 size=    7936kB time=00:00:10.33 bitrate=6291.8kbits/s speed=0.435x    frame=  274 fps= 11 q=29.0 size=    8192kB time=00:00:10.56 bitrate=6352.0kbits/s speed=0.436x    frame=  279 fps= 11 q=25.0 size=    8704kB time=00:00:10.77 bitrate=6618.1kbits/s speed=0.435x    frame=  285 fps= 11 q=25.0 size=    8704kB time=00:00:11.00 bitrate=6478.5kbits/s speed=0.436x    frame=  292 fps= 11 q=25.0 size=    8704kB time=00:00:11.28 bitrate=6318.5kbits/s speed=0.438x    frame=  299 fps= 11 q=25.0 size=    8704kB time=00:00:11.56 bitrate=6166.2kbits/s speed=0.44x    frame=  305 fps= 11 q=25.0 size=    8704kB time=00:00:11.81 bitrate=6033.0kbits/s speed=0.441x    frame=  311 fps= 11 q=25.0 size=    8704kB time=00:00:12.04 bitrate=5922.2kbits/s speed=0.441x    frame=  316 fps= 11 q=25.0 size=    8704kB time=00:00:12.24 bitrate=5825.4kbits/s speed=0.441x    frame=  321 fps= 11 q=25.0 size=    8960kB time=00:00:12.44 bitrate=5897.6kbits/s speed=0.44x    frame=  327 fps= 11 q=26.0 size=    8960kB time=00:00:12.70 bitrate=5779.0kbits/s speed=0.441x    frame=  334 fps= 11 q=25.0 size=    8960kB time=00:00:12.97 bitrate=5654.9kbits/s speed=0.443x    frame=  340 fps= 11 q=25.0 size=    8960kB time=00:00:13.21 bitrate=5555.5kbits/s speed=0.443x    frame=  346 fps= 11 q=25.0 size=    8960kB time=00:00:13.44 bitrate=5459.6kbits/s speed=0.444x    frame=  353 fps= 11 q=25.0 size=    8960kB time=00:00:13.72 bitrate=5348.7kbits/s speed=0.445x    frame=  359 fps= 11 q=30.0 size=    8960kB time=00:00:13.97 bitrate=5251.0kbits/s speed=0.446x    frame=  365 fps= 11 q=25.0 size=    9216kB time=00:00:14.21 bitrate=5312.8kbits/s speed=0.446x    frame=  370 fps= 11 q=25.0 size=    9216kB time=00:00:14.40 bitrate=5242.9kbits/s speed=0.445x    frame=  374 fps= 11 q=25.0 size=    9216kB time=00:00:14.58 bitrate=5177.4kbits/s speed=0.444x    frame=  377 fps= 11 q=25.0 size=    9216kB time=00:00:14.69 bitrate=5136.5kbits/s speed=0.441x    frame=  380 fps= 11 q=25.0 size=    9216kB time=00:00:14.80 bitrate=5101.2kbits/s speed=0.437x    frame=  383 fps= 11 q=25.0 size=    9216kB time=00:00:14.93 bitrate=5056.6kbits/s speed=0.435x    frame=  389 fps= 11 q=25.0 size=    9216kB time=00:00:15.16 bitrate=4979.2kbits/s speed=0.435x    frame=  396 fps= 11 q=25.0 size=    9216kB time=00:00:15.44 bitrate=4889.4kbits/s speed=0.437x    frame=  402 fps= 11 q=25.0 size=    9216kB time=00:00:15.69 bitrate=4809.8kbits/s speed=0.438x    frame=  409 fps= 11 q=25.0 size=    9216kB time=00:00:15.97 bitrate=4725.9kbits/s speed=0.439x    frame=  415 fps= 11 q=25.0 size=    9472kB time=00:00:16.20 bitrate=4787.6kbits/s speed=0.439x    frame=  420 fps= 11 q=25.0 size=    9472kB time=00:00:16.41 bitrate=4726.6kbits/s speed=0.439x    frame=  425 fps= 11 q=25.0 size=    9472kB time=00:00:16.60 bitrate=4674.4kbits/s speed=0.438x    frame=  430 fps= 11 q=25.0 size=    9472kB time=00:00:16.81 bitrate=4615.7kbits/s speed=0.438x    frame=  436 fps= 11 q=25.0 size=    9472kB time=00:00:17.04 bitrate=4552.8kbits/s speed=0.438x    frame=  442 fps= 11 q=25.0 size=    9472kB time=00:00:17.29 bitrate=4485.6kbits/s speed=0.439x    frame=  448 fps= 11 q=29.0 size=    9472kB time=00:00:17.53 bitrate=4426.1kbits/s speed=0.439x    frame=  453 fps= 11 q=28.0 size=    9728kB time=00:00:17.74 bitrate=4492.2kbits/s speed=0.439x    frame=  458 fps= 11 q=28.0 size=    9728kB time=00:00:17.92 bitrate=4447.1kbits/s speed=0.438x    frame=  462 fps= 11 q=28.0 size=    9728kB time=00:00:18.08 bitrate=4405.7kbits/s speed=0.437x    frame=  467 fps= 11 q=28.0 size=    9728kB time=00:00:18.29 bitrate=4355.4kbits/s speed=0.436x    frame=  473 fps= 11 q=29.0 size=    9984kB time=00:00:18.52 bitrate=4414.0kbits/s speed=0.437x    frame=  478 fps= 11 q=28.0 size=    9984kB time=00:00:18.73 bitrate=4364.8kbits/s speed=0.436x    frame=  483 fps= 11 q=28.0 size=    9984kB time=00:00:18.92 bitrate=4321.9kbits/s speed=0.436x    frame=  487 fps= 11 q=28.0 size=   10240kB time=00:00:19.08 bitrate=4395.0kbits/s speed=0.434x    frame=  491 fps= 11 q=28.0 size=   10240kB time=00:00:19.24 bitrate=4357.9kbits/s speed=0.433x    frame=  494 fps= 11 q=28.0 size=   10240kB time=00:00:19.36 bitrate=4331.8kbits/s speed=0.431x    frame=  498 fps= 11 q=28.0 size=   10240kB time=00:00:19.52 bitrate=4295.7kbits/s speed=0.429x    frame=  502 fps= 11 q=28.0 size=   10496kB time=00:00:19.69 bitrate=4366.8kbits/s speed=0.428x    frame=  506 fps= 11 q=29.0 size=   10496kB time=00:00:19.85 bitrate=4331.0kbits/s speed=0.427x    frame=  511 fps= 11 q=28.0 size=   10752kB time=00:00:20.06 bitrate=4390.4kbits/s speed=0.427x    frame=  515 fps= 11 q=28.0 size=   10752kB time=00:00:20.20 bitrate=4360.1kbits/s speed=0.425x    frame=  520 fps= 11 q=28.0 size=   10752kB time=00:00:20.40 bitrate=4317.7kbits/s speed=0.425x    frame=  526 fps= 11 q=28.0 size=   10752kB time=00:00:20.64 bitrate=4267.5kbits/s speed=0.426x    frame=  531 fps= 11 q=28.0 size=   11008kB time=00:00:20.85 bitrate=4324.8kbits/s speed=0.426x    frame=  537 fps= 11 q=28.0 size=   11008kB time=00:00:21.08 bitrate=4277.1kbits/s speed=0.426x    frame=  542 fps= 11 q=29.0 size=   11264kB time=00:00:21.29 bitrate=4333.6kbits/s speed=0.426x    frame=  548 fps= 11 q=29.0 size=   11264kB time=00:00:21.52 bitrate=4286.9kbits/s speed=0.426x    frame=  553 fps= 11 q=29.0 size=   11264kB time=00:00:21.73 bitrate=4245.7kbits/s speed=0.426x    frame=  558 fps= 11 q=24.0 size=   11520kB time=00:00:21.94 bitrate=4300.8kbits/s speed=0.426x    frame=  563 fps= 11 q=24.0 size=   11520kB time=00:00:22.12 bitrate=4264.7kbits/s speed=0.425x    frame=  568 fps= 11 q=24.0 size=   11520kB time=00:00:22.33 bitrate=4224.8kbits/s speed=0.425x    frame=  575 fps= 11 q=25.0 size=   11520kB time=00:00:22.61 bitrate=4172.8kbits/s speed=0.426x    frame=  582 fps= 11 q=26.0 size=   11520kB time=00:00:22.88 bitrate=4124.6kbits/s speed=0.427x    frame=  588 fps= 11 q=26.0 size=   11520kB time=00:00:23.12 bitrate=4080.6kbits/s speed=0.428x    frame=  594 fps= 11 q=25.0 size=   11520kB time=00:00:23.38 bitrate=4036.0kbits/s speed=0.429x    frame=  602 fps= 11 q=20.0 size=   11776kB time=00:00:23.68 bitrate=4073.1kbits/s speed=0.43x    frame=  611 fps= 11 q=17.0 size=   11776kB time=00:00:24.05 bitrate=4010.2kbits/s speed=0.433x    frame=  621 fps= 11 q=17.0 size=   11776kB time=00:00:24.45 bitrate=3945.5kbits/s speed=0.436x    [mp4 @ 0x44f98900] Starting second pass: moving the moov atom to the beginning of the file
frame=  624 fps= 11 q=-1.0 Lsize=   11858kB time=00:00:24.92 bitrate=3898.0kbits/s speed=0.443x    
video:11453kB audio:388kB subtitle:0kB other streams:0kB global headers:0kB muxing overhead: 0.140766%
[libx264 @ 0x44fab100] frame I:3     Avg QP:27.00  size:123588
[libx264 @ 0x44fab100] frame P:621   Avg QP:27.17  size: 18287
[libx264 @ 0x44fab100] mb I  I16..4: 100.0%  0.0%  0.0%
[libx264 @ 0x44fab100] mb P  I16..4:  4.7%  0.0%  0.0%  P16..4: 40.2%  0.0%  0.0%  0.0%  0.0%    skip:55.1%
[libx264 @ 0x44fab100] coded y,uvDC,uvAC intra: 30.6% 35.4% 12.3% inter: 20.6% 10.5% 0.7%
[libx264 @ 0x44fab100] i16 v,h,dc,p: 38% 30% 17% 15%
[libx264 @ 0x44fab100] i8c dc,h,v,p: 43% 28% 20%  8%
[libx264 @ 0x44fab100] kb/s:3758.69
